<svg xmlns="http://www.w3.org/2000/svg" width="40" height="40" viewBox="0 0 40 40">
  <g id="camera" transform="translate(-220 -237)">
    <circle id="Ellipse_561" data-name="Ellipse 561" cx="20" cy="20" r="20" transform="translate(220 237)" fill="#002b46"/>
    <path id="camera-2" data-name="camera" d="M13.688,1.927h1.385A3.337,3.337,0,0,1,18.4,5.256v7.49a3.337,3.337,0,0,1-3.329,3.329H3.319A3.337,3.337,0,0,1-.01,12.745V5.256A3.337,3.337,0,0,1,3.319,1.927H4.7a2.607,2.607,0,0,1,.7-1.1A2.89,2.89,0,0,1,7.242,0H11.15a2.89,2.89,0,0,1,1.837.829,2.609,2.609,0,0,1,.7,1.1ZM9.2,4.944A4.057,4.057,0,1,1,6.327,6.132,4.045,4.045,0,0,1,9.2,4.944Zm1.986,2.071A2.809,2.809,0,1,0,12,9,2.8,2.8,0,0,0,11.182,7.015Zm3.891-3.839H13.159a.624.624,0,0,1-.624-.624,1.186,1.186,0,0,0-.411-.826,1.585,1.585,0,0,0-.974-.478H7.242a1.585,1.585,0,0,0-.974.478,1.186,1.186,0,0,0-.411.826.624.624,0,0,1-.624.624H3.319a2.088,2.088,0,0,0-2.08,2.08v7.49a2.088,2.088,0,0,0,2.08,2.08H15.073a2.088,2.088,0,0,0,2.08-2.08V5.256a2.088,2.088,0,0,0-2.08-2.08Z" transform="translate(230.779 249.163)" fill="#fff"/>
  </g>
</svg>
