<svg xmlns="http://www.w3.org/2000/svg" width="30.006" height="30" viewBox="0 0 30.006 30">
  <g id="course" transform="translate(-330 -575)">
    <rect id="Rectangle_4" data-name="Rectangle 4" width="30" height="30" transform="translate(330 575)" fill="rgba(255,36,36,0)"/>
    <g id="education" transform="translate(330.3 575.975)">
      <path id="Path_104808" data-name="Path 104808" d="M14.728,16.268a.451.451,0,0,1-.368-.123L.859,11.236a1.14,1.14,0,0,1,0-2.209l13.5-4.909a1.048,1.048,0,0,1,.859,0l13.5,4.909a1.243,1.243,0,0,1,.736,1.1,1.179,1.179,0,0,1-.859,1.1L15.1,16.145a.451.451,0,0,1-.368.123ZM4.787,10.131l9.941,3.559,9.941-3.559L14.728,6.572Z" fill="#666" stroke="#666" stroke-width="0.5"/>
      <path id="Path_104809" data-name="Path 104809" d="M20.819,22.261H12.227a1.227,1.227,0,0,1,0-2.455h7.364A16.077,16.077,0,0,0,17.5,11.951a1.243,1.243,0,1,1,2.086-1.35,19.71,19.71,0,0,1,2.455,10.31,1.2,1.2,0,0,1-1.227,1.35Z" transform="translate(2.501 1.371)" fill="#666" stroke="#666" stroke-width="0.5"/>
      <path id="Path_104810" data-name="Path 104810" d="M13.819,22.728H5.227A1.16,1.16,0,0,1,4,21.5a19.71,19.71,0,0,1,2.455-10.31,1.243,1.243,0,0,1,2.086,1.35A16.077,16.077,0,0,0,6.455,20.4h7.364a1.16,1.16,0,0,1,1.227,1.227C15.046,22.36,14.555,22.728,13.819,22.728Zm12.273,0A1.16,1.16,0,0,1,24.865,21.5V9.227a1.227,1.227,0,1,1,2.455,0V21.5A1.16,1.16,0,0,1,26.092,22.728Z" transform="translate(0.909 0.904)" fill="#666" stroke="#666" stroke-width="0.5"/>
    </g>
  </g>
</svg>
