<svg id="hide" xmlns="http://www.w3.org/2000/svg" width="30.004" height="30.004" viewBox="0 0 30.004 30.004">
  <path id="Path_104806" data-name="Path 104806" d="M0,0H30V30H0Z" fill="none"/>
  <path id="no-preview" d="M13.177,7.1A8.664,8.664,0,0,1,14.5,7c3.976,0,7.714,2.863,9.889,7.5a19.04,19.04,0,0,1-1.125,2.05,1.249,1.249,0,1,0,2.125,1.313A19.715,19.715,0,0,0,26.9,14.99a1.25,1.25,0,0,0,0-.988c-2.525-5.863-7.276-9.5-12.4-9.5a9.714,9.714,0,0,0-1.75.15,1.268,1.268,0,1,0,.425,2.5ZM4.139,2.364A1.255,1.255,0,0,0,2.364,4.139L6.239,8A18.277,18.277,0,0,0,2.1,14a1.25,1.25,0,0,0,0,1c2.525,5.863,7.276,9.5,12.4,9.5a11.576,11.576,0,0,0,6.313-1.925l4.051,4.063a1.255,1.255,0,1,0,1.775-1.775ZM12.09,13.853l3.063,3.063A2.263,2.263,0,0,1,14.5,17,2.5,2.5,0,0,1,12,14.5a2.263,2.263,0,0,1,.088-.65ZM14.5,22c-3.976,0-7.714-2.863-9.876-7.5A15.115,15.115,0,0,1,8,9.765L10.215,12A5,5,0,0,0,17,18.791l1.988,1.963A9.051,9.051,0,0,1,14.5,22Z" transform="translate(0.505 0.504)" fill="#9f9f9f"/>
</svg>
