<svg xmlns="http://www.w3.org/2000/svg" width="30" height="30.057" viewBox="0 0 30 30.057">
  <g id="password" transform="translate(-330 -574.943)">
    <rect id="Rectangle_4" data-name="Rectangle 4" width="30" height="30" transform="translate(330 575)" fill="rgba(255,36,36,0)"/>
    <g id="password-2" data-name="password" transform="translate(333 574.943)">
      <path id="Path_48740" data-name="Path 48740" d="M23.537,11.017H13.017V8.011a3.006,3.006,0,1,1,6.011,0,1.5,1.5,0,1,0,3.006,0,6.011,6.011,0,1,0-12.023,0v3.006h-1.5A4.509,4.509,0,0,0,4,15.526V27.549a4.509,4.509,0,0,0,4.509,4.509H23.537a4.509,4.509,0,0,0,4.509-4.509V15.526A4.509,4.509,0,0,0,23.537,11.017Zm1.5,16.531a1.5,1.5,0,0,1-1.5,1.5H8.509a1.5,1.5,0,0,1-1.5-1.5V15.526a1.5,1.5,0,0,1,1.5-1.5H23.537a1.5,1.5,0,0,1,1.5,1.5Z" transform="translate(-4 -2)" fill="#666"/>
      <path id="Path_48741" data-name="Path 48741" d="M13.509,12a4.509,4.509,0,1,0,4.509,4.509A4.509,4.509,0,0,0,13.509,12Zm0,6.011a1.5,1.5,0,1,1,1.5-1.5A1.5,1.5,0,0,1,13.509,18.011Z" transform="translate(-1.486 3.029)" fill="#666"/>
    </g>
  </g>
</svg>
