<svg id="user_placeholder_profile" xmlns="http://www.w3.org/2000/svg" width="100" height="100" viewBox="0 0 100 100">
  <ellipse id="Ellipse_556" data-name="Ellipse 556" cx="50" cy="49.613" rx="50" ry="49.613" fill="#ede7f6"/>
  <path id="Path_104833" data-name="Path 104833" d="M39.637,31s0,9.818-9.818,9.818S20,31,20,31" transform="translate(20.581 36.636)" fill="#ff9800"/>
  <path id="Path_104834" data-name="Path 104834" d="M42.663,62.91a52.441,52.441,0,0,0,30.6-9.774C71.676,34.564,52.274,31,52.274,31l-9.611,1.89L33.051,31S13.644,34.5,12.06,53.136A52.455,52.455,0,0,0,42.663,62.91Z" transform="translate(7.724 37.09)" fill="#00d563"/>
  <path id="Path_104835" data-name="Path 104835" d="M32.653,45.648a14.723,14.723,0,0,0,14.6-12.887,28.943,28.943,0,0,0-4.8-1.7,9.8,9.8,0,0,1-19.607,0,29.109,29.109,0,0,0-4.8,1.689A14.719,14.719,0,0,0,32.653,45.648Z" transform="translate(17.748 36.797)" fill="#002b46"/>
  <path id="Path_104836" data-name="Path 104836" d="M55.273,24.682A3.682,3.682,0,1,1,51.592,21a3.683,3.683,0,0,1,3.682,3.682m-31.91,0a3.682,3.682,0,1,0-3.682,3.682,3.683,3.683,0,0,0,3.682-3.682M45.455,45.546V35.728H25.818v9.818s0,9.818,9.818,9.818S45.455,45.546,45.455,45.546Z" transform="translate(14.767 21.916)" fill="#ef8d3c"/>
  <path id="Path_104837" data-name="Path 104837" d="M51.364,24.032C51.364,9.6,17,14.639,17,24.032V34.81a17.183,17.183,0,0,0,34.364,0Z" transform="translate(16.22 12.8)" fill="#ffaa45"/>
  <path id="Path_104838" data-name="Path 104838" d="M35.637,11C23.707,11,16,21.587,16,31.059v4.487l4.909,4.909V30.637l22.582-7.364,6.873,7.364v9.818l4.909-4.909V33.56c0-7.9-2.04-16.7-11.782-18.635L41.525,11Z" transform="translate(14.767 6.636)" fill="#795548"/>
  <path id="Path_104839" data-name="Path 104839" d="M34.728,23.455a2.455,2.455,0,1,1,2.455,2.455,2.457,2.457,0,0,1-2.455-2.455M20,23.455A2.455,2.455,0,1,0,22.455,21,2.457,2.457,0,0,0,20,23.455" transform="translate(20.581 21.541)" fill="#784719"/>
  <g id="camera" transform="translate(-160 -177)">
    <circle id="Ellipse_561" data-name="Ellipse 561" cx="20" cy="20" r="20" transform="translate(220 237)" fill="#002b46"/>
    <path id="camera-2" data-name="camera" d="M13.688,1.927h1.385A3.337,3.337,0,0,1,18.4,5.256v7.49a3.337,3.337,0,0,1-3.329,3.329H3.319A3.337,3.337,0,0,1-.01,12.745V5.256A3.337,3.337,0,0,1,3.319,1.927H4.7a2.607,2.607,0,0,1,.7-1.1A2.89,2.89,0,0,1,7.242,0H11.15a2.89,2.89,0,0,1,1.837.829,2.609,2.609,0,0,1,.7,1.1ZM9.2,4.944A4.057,4.057,0,1,1,6.327,6.132,4.045,4.045,0,0,1,9.2,4.944Zm1.986,2.071A2.809,2.809,0,1,0,12,9,2.8,2.8,0,0,0,11.182,7.015Zm3.891-3.839H13.159a.624.624,0,0,1-.624-.624,1.186,1.186,0,0,0-.411-.826,1.585,1.585,0,0,0-.974-.478H7.242a1.585,1.585,0,0,0-.974.478,1.186,1.186,0,0,0-.411.826.624.624,0,0,1-.624.624H3.319a2.088,2.088,0,0,0-2.08,2.08v7.49a2.088,2.088,0,0,0,2.08,2.08H15.073a2.088,2.088,0,0,0,2.08-2.08V5.256a2.088,2.088,0,0,0-2.08-2.08Z" transform="translate(230.779 249.163)" fill="#fff"/>
  </g>
</svg>
