<svg xmlns="http://www.w3.org/2000/svg" width="129.559" height="57.565" viewBox="0 0 129.559 57.565">
  <g id="logo_login" transform="translate(-5.954 -21.448)">
    <g id="Group_6" data-name="Group 6" transform="translate(6.252 65.316)">
      <path id="Path_27" data-name="Path 27" d="M926.5,188.313a3.652,3.652,0,0,1,1.307.207,2.144,2.144,0,0,1,1.357,1.426,3.682,3.682,0,0,1,.15,1.081v4.632a4.193,4.193,0,0,1-.44.092c-.19.033-.414.069-.664.108s-.535.066-.841.092-.625.036-.95.036a4.759,4.759,0,0,1-1.14-.128,2.56,2.56,0,0,1-.911-.407,1.921,1.921,0,0,1-.6-.71,2.3,2.3,0,0,1-.22-1.058,1.917,1.917,0,0,1,.923-1.728,3.187,3.187,0,0,1,1.045-.4,6.352,6.352,0,0,1,1.318-.128,4.231,4.231,0,0,1,.447.023c.154.013.309.033.457.056s.27.046.375.072a1.126,1.126,0,0,1,.22.062v-.453a4.587,4.587,0,0,0-.059-.746,1.581,1.581,0,0,0-.266-.654,1.467,1.467,0,0,0-.575-.47,2.271,2.271,0,0,0-.976-.177,5.379,5.379,0,0,0-1.288.115c-.282.072-.49.135-.621.184l-.135-.811a4.026,4.026,0,0,1,.8-.214A7.285,7.285,0,0,1,926.5,188.313Zm.089,6.85c.384,0,.719-.013,1.008-.036s.532-.056.732-.092v-2.586a2.878,2.878,0,0,0-.529-.151,4.949,4.949,0,0,0-1-.079,6.742,6.742,0,0,0-.755.049,2.323,2.323,0,0,0-.729.217,1.478,1.478,0,0,0-.545.447,1.225,1.225,0,0,0-.21.752,1.5,1.5,0,0,0,.145.7,1.113,1.113,0,0,0,.407.453,1.859,1.859,0,0,0,.637.25A4.038,4.038,0,0,0,926.586,195.163Z" transform="translate(-923.544 -184.804)" fill="#4dc4a2"/>
      <path id="Path_28" data-name="Path 28" d="M930.253,195.987a4.4,4.4,0,0,1-1.6-.273,3.009,3.009,0,0,1-1.16-.772,3.4,3.4,0,0,1-.7-1.209,4.754,4.754,0,0,1-.243-1.554,4.828,4.828,0,0,1,.25-1.58,3.541,3.541,0,0,1,.719-1.222,3.175,3.175,0,0,1,1.137-.788,3.876,3.876,0,0,1,1.5-.276,6.786,6.786,0,0,1,1.189.1,3.181,3.181,0,0,1,.854.256l-.256.8a3.481,3.481,0,0,0-.684-.227,4.828,4.828,0,0,0-1.012-.085,2.461,2.461,0,0,0-1.978.789,3.344,3.344,0,0,0-.673,2.241,4.608,4.608,0,0,0,.151,1.2,2.374,2.374,0,0,0,.493.936,2.243,2.243,0,0,0,.877.611,3.44,3.44,0,0,0,1.311.22,3.571,3.571,0,0,0,1.068-.135,4.385,4.385,0,0,0,.627-.233l.213.795a3.868,3.868,0,0,1-.857.279A5.434,5.434,0,0,1,930.253,195.987Z" transform="translate(-916.688 -184.804)" fill="#4dc4a2"/>
      <path id="Path_29" data-name="Path 29" d="M932.208,188.313a3.652,3.652,0,0,1,1.307.207,2.22,2.22,0,0,1,.87.568,2.161,2.161,0,0,1,.483.857,3.674,3.674,0,0,1,.151,1.081v4.632a4.059,4.059,0,0,1-.437.092c-.19.033-.414.069-.667.108s-.532.066-.841.092-.621.036-.946.036a4.794,4.794,0,0,1-1.144-.128,2.545,2.545,0,0,1-.906-.407,1.915,1.915,0,0,1-.6-.71,2.3,2.3,0,0,1-.22-1.058,2.055,2.055,0,0,1,.24-1.025,2.025,2.025,0,0,1,.683-.7,3.181,3.181,0,0,1,1.045-.4,6.343,6.343,0,0,1,1.317-.128,4.286,4.286,0,0,1,.447.023c.154.013.309.033.453.056s.272.046.378.072a1.225,1.225,0,0,1,.22.062v-.453a4.278,4.278,0,0,0-.062-.746,1.56,1.56,0,0,0-.263-.654,1.466,1.466,0,0,0-.575-.47,2.29,2.29,0,0,0-.979-.177,5.343,5.343,0,0,0-1.284.115c-.282.072-.49.135-.621.184l-.135-.811a3.974,3.974,0,0,1,.792-.214A7.331,7.331,0,0,1,932.208,188.313Zm.088,6.85c.384,0,.719-.013,1.009-.036s.529-.056.733-.092v-2.586a3.073,3.073,0,0,0-.529-.151,4.962,4.962,0,0,0-1-.079,6.857,6.857,0,0,0-.756.049,2.3,2.3,0,0,0-.726.217,1.453,1.453,0,0,0-.546.447,1.224,1.224,0,0,0-.213.752,1.539,1.539,0,0,0,.145.7,1.16,1.16,0,0,0,.407.453,1.888,1.888,0,0,0,.638.25A4.065,4.065,0,0,0,932.3,195.163Z" transform="translate(-910.495 -184.804)" fill="#4dc4a2"/>
      <path id="Path_30" data-name="Path 30" d="M938.946,198.044a9.293,9.293,0,0,1-1.121.269,9.616,9.616,0,0,1-1.728.128,4.451,4.451,0,0,1-1.564-.263,3.34,3.34,0,0,1-2-1.968,4.331,4.331,0,0,1-.279-1.606,4.8,4.8,0,0,1,.233-1.541,3.48,3.48,0,0,1,.69-1.216,3.112,3.112,0,0,1,1.114-.795,3.743,3.743,0,0,1,1.508-.286,3.9,3.9,0,0,1,1.337.207,3.682,3.682,0,0,1,.824.391v-3.952l.986-.168Zm-.986-5.785a3.265,3.265,0,0,0-.338-.21,3,3,0,0,0-.479-.214,3.693,3.693,0,0,0-.592-.164,3.334,3.334,0,0,0-.664-.066,2.75,2.75,0,0,0-1.219.243,2.182,2.182,0,0,0-.795.647,2.629,2.629,0,0,0-.441.953,4.889,4.889,0,0,0-.134,1.156,3.012,3.012,0,0,0,.772,2.224,2.762,2.762,0,0,0,2.043.775,8.517,8.517,0,0,0,1.173-.066,4.311,4.311,0,0,0,.673-.135Z" transform="translate(-903.639 -187.245)" fill="#4dc4a2"/>
      <path id="Path_31" data-name="Path 31" d="M935.563,192.15a4.42,4.42,0,0,1,.3-1.685,3.688,3.688,0,0,1,.772-1.2,3.056,3.056,0,0,1,1.088-.719,3.561,3.561,0,0,1,1.264-.233,3.055,3.055,0,0,1,2.3.88,3.775,3.775,0,0,1,.854,2.714c0,.076,0,.151-.007.23s-.013.145-.023.21h-5.5a3.124,3.124,0,0,0,.709,2.076,2.752,2.752,0,0,0,2.119.723,4.568,4.568,0,0,0,1.275-.141,5.8,5.8,0,0,0,.68-.24l.181.795a4.309,4.309,0,0,1-.8.269,5.271,5.271,0,0,1-1.37.158,4.784,4.784,0,0,1-1.754-.286,3.129,3.129,0,0,1-1.2-.795,3.058,3.058,0,0,1-.683-1.216A5.435,5.435,0,0,1,935.563,192.15Zm5.556-.581a2.818,2.818,0,0,0-.575-1.794,1.924,1.924,0,0,0-1.544-.637,2.132,2.132,0,0,0-.947.2,2.424,2.424,0,0,0-1.212,1.3,3.016,3.016,0,0,0-.2.926Z" transform="translate(-896.077 -184.804)" fill="#4dc4a2"/>
      <path id="Path_32" data-name="Path 32" d="M938.853,188.72c.292-.076.673-.161,1.146-.256a9.437,9.437,0,0,1,1.823-.141,2.628,2.628,0,0,1,2.148.808c.05-.036.148-.1.3-.191a4.108,4.108,0,0,1,.552-.276,4.411,4.411,0,0,1,.781-.243,4.6,4.6,0,0,1,.993-.1,3.584,3.584,0,0,1,1.445.246,2.047,2.047,0,0,1,.854.7,2.686,2.686,0,0,1,.408,1.074,8.033,8.033,0,0,1,.105,1.363v4.107h-.982V192a9.973,9.973,0,0,0-.069-1.258,2.31,2.31,0,0,0-.273-.881,1.3,1.3,0,0,0-.581-.526,2.345,2.345,0,0,0-.986-.177,3.988,3.988,0,0,0-.824.079,3.426,3.426,0,0,0-.644.19,2.939,2.939,0,0,0-.447.227c-.115.076-.2.135-.25.171a4.107,4.107,0,0,1,.207.831,7.1,7.1,0,0,1,.066.973v4.179h-.982V192a10.065,10.065,0,0,0-.069-1.258,2.247,2.247,0,0,0-.28-.881,1.353,1.353,0,0,0-.6-.526,2.5,2.5,0,0,0-1.025-.177,8.311,8.311,0,0,0-1.2.072,3.387,3.387,0,0,0-.627.125v6.452h-.986Z" transform="translate(-888.559 -184.784)" fill="#4dc4a2"/>
      <path id="Path_33" data-name="Path 33" d="M946.485,195.869c-.332-.581-.647-1.183-.956-1.807s-.6-1.258-.87-1.9-.513-1.278-.733-1.919-.417-1.265-.575-1.882H944.4c.109.453.25.946.424,1.472s.365,1.068.578,1.626.457,1.133.72,1.718.549,1.166.857,1.735c.227-.585.424-1.14.6-1.659s.335-1.038.483-1.554.289-1.045.43-1.583.276-1.124.421-1.754h.982q-.493,2.06-1.107,4.011a33.019,33.019,0,0,1-1.341,3.561,7.768,7.768,0,0,1-.595,1.1,3.188,3.188,0,0,1-.677.762,2.464,2.464,0,0,1-.864.44,4.221,4.221,0,0,1-1.163.141,2.531,2.531,0,0,1-.693-.085,2.087,2.087,0,0,1-.388-.128l.2-.766a1.494,1.494,0,0,0,.341.118,2.149,2.149,0,0,0,.585.079,3.049,3.049,0,0,0,.765-.085,1.692,1.692,0,0,0,.614-.289,2.156,2.156,0,0,0,.493-.536A4.765,4.765,0,0,0,946.485,195.869Z" transform="translate(-878.942 -184.685)" fill="#4dc4a2"/>
    </g>
    <path id="Path_34" data-name="Path 34" d="M947.317,203.174H932.231c.047-.726.079-1.38.125-2.135q.305-4.829.663-9.636c.119-1.574.273-3.026.411-4.54.141-1.57.263-3.2.424-4.7.3-2.888.637-5.493,1-7.835-.03-.053-.073-.138-.1-.187H926.5q-.552,3.578-1.022,8.023t-.831,9.245q-.365,4.81-.667,9.636t-.526,9.09H949.1Z" transform="translate(-917.5 -151.889)" fill="#002b46"/>
    <path id="Path_35" data-name="Path 35" d="M958.35,203.309H941.7c.046-.779.082-1.482.135-2.3.132-2.129.289-4.251.437-6.373h14.656L955.14,188H942.8c.036-.384.069-.775.1-1.163.142-1.57.263-3.2.424-4.7.046-.417.1-.785.138-1.193h15.046l1.784-6.794H935.967q-.547,3.568-1.015,7.986-.473,4.44-.834,9.245t-.664,9.636c-.181,2.868-.332,5.526-.47,8.092-.016.315-.039.687-.059,1H960.13Z" transform="translate(-898.694 -151.864)" fill="#002b46"/>
    <path id="Path_36" data-name="Path 36" d="M984.717,196.416a8.459,8.459,0,0,0-2.181-3.164,13.852,13.852,0,0,0-3.677-2.362q-2.213-1.015-5.2-2.05c-.959-.312-1.836-.618-2.625-.91a12.788,12.788,0,0,1-2.1-.986,4.713,4.713,0,0,1-1.41-1.219,2.7,2.7,0,0,1-.5-1.659,2.664,2.664,0,0,1,1.353-2.464,9.124,9.124,0,0,1,4.455-.811,16.486,16.486,0,0,1,4.724.6,24.389,24.389,0,0,1,3.564,1.38l2.49-6.383a24.787,24.787,0,0,0-4.642-1.715,25.349,25.349,0,0,0-6.692-.779,21.033,21.033,0,0,0-5.862.752,13.267,13.267,0,0,0-4.424,2.155,9.707,9.707,0,0,0-2.819,3.4,9.958,9.958,0,0,0-1,4.488,8.8,8.8,0,0,0,.94,4.228,9.84,9.84,0,0,0,2.43,2.957,14.039,14.039,0,0,0,3.374,2.027q1.882.8,3.761,1.426a26.144,26.144,0,0,1,6.082,2.517,3.436,3.436,0,0,1,1.767,2.934,3.961,3.961,0,0,1-.272,1.5,2.668,2.668,0,0,1-1,1.166,5.673,5.673,0,0,1-1.908.775,12.989,12.989,0,0,1-3.013.289,23.254,23.254,0,0,1-6.163-.7,22.011,22.011,0,0,1-4.235-1.583l-2.431,6.439c.52.276,1.153.568,1.909.877a21.547,21.547,0,0,0,2.71.887,32.17,32.17,0,0,0,3.62.7,33.955,33.955,0,0,0,4.59.282q7.569,0,11.334-2.776a9.135,9.135,0,0,0,3.759-7.806A11.988,11.988,0,0,0,984.717,196.416Z" transform="translate(-849.923 -152.444)" fill="#002b46"/>
    <g id="Group_8" data-name="Group 8" transform="translate(62.79 22.282)">
      <path id="Path_37" data-name="Path 37" d="M948.487,182.911l1.711,2.963a1.281,1.281,0,0,0,2.221,0l1.712-2.963Z" transform="translate(-929.82 -154.115)" fill="#002b46"/>
      <path id="Path_38" data-name="Path 38" d="M961.471,191.4q-.365-4.8-.832-9.238c-.308-2.957-.653-5.631-1.018-8.013h0l-6.676,11.86c.365,4.179.687,8.578.87,12.684s.332,7.921.44,11.413h8.4q-.216-4.253-.522-9.081T961.471,191.4Z" transform="translate(-919.639 -174.146)" fill="#002b46"/>
      <path id="Path_39" data-name="Path 39" d="M945.848,174.146q-.553,3.573-1.019,8.013t-.835,9.238q-.359,4.8-.663,9.626t-.526,9.081h8.4q.173-5.238.447-11.413c.184-4.1.519-8.627.89-12.8l-6.659-11.745Z" transform="translate(-942.805 -174.146)" fill="#002b46"/>
      <g id="Group_7" data-name="Group 7" transform="translate(3.082)">
        <path id="Path_40" data-name="Path 40" d="M951.946,174.146h-8.2s14.9,26.483,15.414,27.626h2.967v-8.644C961.313,191.328,952.607,175.283,951.946,174.146Z" transform="translate(-943.743 -174.146)" fill="#4dc4a2"/>
        <path id="Path_41" data-name="Path 41" d="M967.854,174.146H960c-.664,1.137-9.849,17.182-10.664,18.982v8.644H952.4C952.919,200.629,967.854,174.146,967.854,174.146Z" transform="translate(-930.957 -174.146)" fill="#02997c"/>
      </g>
    </g>
  </g>
</svg>
