<svg xmlns="http://www.w3.org/2000/svg" width="30" height="30" viewBox="0 0 30 30">
  <g id="mobile" transform="translate(-330 -575)">
    <rect id="Rectangle_4" data-name="Rectangle 4" width="30" height="30" transform="translate(330 575)" fill="rgba(255,36,36,0)"/>
    <path id="Mobile-2" data-name="Mobile" d="M21.5,2H9.5A4.5,4.5,0,0,0,5,6.5v21A4.5,4.5,0,0,0,9.5,32h12A4.5,4.5,0,0,0,26,27.5V6.5A4.5,4.5,0,0,0,21.5,2ZM23,27.5A1.5,1.5,0,0,1,21.5,29H9.5A1.5,1.5,0,0,1,8,27.5V26H23ZM23,23H8V6.5A1.5,1.5,0,0,1,9.5,5h12A1.5,1.5,0,0,1,23,6.5Z" transform="translate(330 573)" fill="#666"/>
  </g>
</svg>
