<svg id="show" xmlns="http://www.w3.org/2000/svg" width="30.004" height="30.004" viewBox="0 0 30.004 30.004">
  <path id="Path_104806" data-name="Path 104806" d="M0,0H30V30H0Z" fill="none"/>
  <path id="eye" d="M26.9,13.5C24.379,7.638,19.628,4,14.5,4S4.626,7.638,2.1,13.5a1.25,1.25,0,0,0,0,1C4.626,20.365,9.377,24,14.5,24s9.876-3.638,12.4-9.5A1.25,1.25,0,0,0,26.9,13.5Zm-12.4,8c-3.963,0-7.714-2.863-9.876-7.5C6.789,9.363,10.539,6.5,14.5,6.5s7.714,2.863,9.876,7.5C22.216,18.639,18.466,21.5,14.5,21.5ZM14.5,9a5,5,0,1,0,5,5A5,5,0,0,0,14.5,9Zm0,7.5A2.5,2.5,0,1,1,17,14,2.5,2.5,0,0,1,14.5,16.5Z" transform="translate(0.504 1.001)" fill="#9f9f9f"/>
</svg>
