<svg id="tick" xmlns="http://www.w3.org/2000/svg" width="80" height="80" viewBox="0 0 80 80">
  <path id="Path_48929" data-name="Path 48929" d="M156.635,121a35.635,35.635,0,1,0,35.635,35.635A35.674,35.674,0,0,0,156.635,121Zm17.234,31.919-18.394,18.394a3.957,3.957,0,0,1-5.6,0L138,159.435a3.959,3.959,0,0,1,5.6-5.6l9.079,9.079L168.27,147.32a3.959,3.959,0,0,1,5.6,5.6Z" transform="translate(-116.635 -116.635)" fill="#00d563"/>
  <path id="Path_48930" data-name="Path 48930" d="M76.345,33.1A3.97,3.97,0,0,1,75.1,28.178a8.7,8.7,0,0,0-.373-7.96,8.97,8.97,0,0,0-6.863-4.3,4,4,0,0,1-3.6-3.6,8.966,8.966,0,0,0-4.305-6.862A8.717,8.717,0,0,0,52,4.974a4,4,0,0,1-4.921-1.316,8.681,8.681,0,0,0-14.156,0A4.034,4.034,0,0,1,28,5.074a8.689,8.689,0,0,0-7.96.373,8.97,8.97,0,0,0-4.3,6.862,4,4,0,0,1-3.6,3.6A8.966,8.966,0,0,0,5.269,20.22,8.7,8.7,0,0,0,4.9,28.178,4,4,0,0,1,3.58,33.1a8.735,8.735,0,0,0,.073,14.156A3.977,3.977,0,0,1,4.9,52.181a8.7,8.7,0,0,0,.373,7.958,8.97,8.97,0,0,0,6.862,4.3,4,4,0,0,1,3.6,3.6,8.966,8.966,0,0,0,4.305,6.863A8.685,8.685,0,0,0,28,75.283a3.928,3.928,0,0,1,4.921,1.06,8.681,8.681,0,0,0,14.156,0A3.923,3.923,0,0,1,52,75.283a8.724,8.724,0,0,0,7.96-.373,8.97,8.97,0,0,0,4.3-6.862,4,4,0,0,1,3.6-3.6,8.966,8.966,0,0,0,6.863-4.305,8.69,8.69,0,0,0,.373-7.954,3.98,3.98,0,0,1,1.238-4.925,8.681,8.681,0,0,0,0-14.159ZM40,65.781A25.781,25.781,0,1,1,65.781,40,25.811,25.811,0,0,1,40,65.781Z" transform="translate(0 0)" fill="#00d563"/>
</svg>
