<svg id="user_placeholder_header" xmlns="http://www.w3.org/2000/svg" width="45" height="45" viewBox="0 0 45 45">
  <ellipse id="Ellipse_556" data-name="Ellipse 556" cx="22.5" cy="22.327" rx="22.5" ry="22.327" fill="#ede7f6"/>
  <path id="Path_104833" data-name="Path 104833" d="M28.81,31s0,4.4-4.4,4.4S20,31,20,31" transform="translate(-1.725 -0.554)" fill="#ff9800"/>
  <path id="Path_104834" data-name="Path 104834" d="M25.858,45.315a23.725,23.725,0,0,0,13.8-4.385C38.939,32.6,30.191,31,30.191,31l-4.333.848L21.524,31s-8.75,1.568-9.464,9.931A23.731,23.731,0,0,0,25.858,45.315Z" transform="translate(-3.184 -0.315)" fill="#00d563"/>
  <path id="Path_104835" data-name="Path 104835" d="M24.6,37.6a6.605,6.605,0,0,0,6.55-5.781A12.985,12.985,0,0,0,29,31.057a4.4,4.4,0,0,1-8.8,0,13.059,13.059,0,0,0-2.153.758A6.6,6.6,0,0,0,24.6,37.6Z" transform="translate(-1.921 -0.506)" fill="#002b46"/>
  <path id="Path_104836" data-name="Path 104836" d="M33.619,22.652A1.652,1.652,0,1,1,31.967,21a1.652,1.652,0,0,1,1.652,1.652m-14.315,0A1.652,1.652,0,1,0,17.652,24.3,1.652,1.652,0,0,0,19.3,22.652m9.911,9.36v-4.4H20.4v4.4s0,4.4,4.4,4.4S29.214,32.012,29.214,32.012Z" transform="translate(-2.127 -1.657)" fill="#ef8d3c"/>
  <path id="Path_104837" data-name="Path 104837" d="M32.417,19.052c0-6.474-15.417-4.214-15.417,0v4.835a7.709,7.709,0,0,0,15.417,0Z" transform="translate(-2.027 -2.468)" fill="#ffaa45"/>
  <path id="Path_104838" data-name="Path 104838" d="M24.81,11C19.458,11,16,15.749,16,20v2.013l2.2,2.2v-4.4l10.131-3.3,3.083,3.3v4.4l2.2-2.2v-.891c0-3.544-.915-7.491-5.286-8.36L27.451,11Z" transform="translate(-2.127 -3.054)" fill="#795548"/>
  <path id="Path_104839" data-name="Path 104839" d="M26.607,22.1a1.1,1.1,0,1,1,1.1,1.1,1.1,1.1,0,0,1-1.1-1.1M20,22.1A1.1,1.1,0,1,0,21.1,21,1.1,1.1,0,0,0,20,22.1" transform="translate(-1.725 -1.854)" fill="#784719"/>
</svg>
